<svg width="65" height="65" viewBox="0 0 65 65" fill="none" xmlns="http://www.w3.org/2000/svg">
<path d="M39 22.75H26C25.138 22.75 24.3114 23.0924 23.7019 23.7019C23.0924 24.3114 22.75 25.138 22.75 26V39C22.75 39.862 23.0924 40.6886 23.7019 41.2981C24.3114 41.9076 25.138 42.25 26 42.25H39C39.862 42.25 40.6886 41.9076 41.2981 41.2981C41.9076 40.6886 42.25 39.862 42.25 39V26C42.25 25.138 41.9076 24.3114 41.2981 23.7019C40.6886 23.0924 39.862 22.75 39 22.75ZM35.75 35.75H29.25V29.25H35.75V35.75ZM61.75 35.75C62.612 35.75 63.4386 35.4076 64.0481 34.7981C64.6576 34.1886 65 33.362 65 32.5C65 31.638 64.6576 30.8114 64.0481 30.2019C63.4386 29.5924 62.612 29.25 61.75 29.25H55.25V22.75H61.75C62.612 22.75 63.4386 22.4076 64.0481 21.7981C64.6576 21.1886 65 20.362 65 19.5C65 18.638 64.6576 17.8114 64.0481 17.2019C63.4386 16.5924 62.612 16.25 61.75 16.25H54.665C54.1797 14.887 53.3972 13.649 52.3741 12.6259C51.351 11.6028 50.113 10.8203 48.75 10.335V3.25C48.75 2.38805 48.4076 1.5614 47.7981 0.951903C47.1886 0.34241 46.362 0 45.5 0C44.638 0 43.8114 0.34241 43.2019 0.951903C42.5924 1.5614 42.25 2.38805 42.25 3.25V9.75H35.75V3.25C35.75 2.38805 35.4076 1.5614 34.7981 0.951903C34.1886 0.34241 33.362 0 32.5 0C31.638 0 30.8114 0.34241 30.2019 0.951903C29.5924 1.5614 29.25 2.38805 29.25 3.25V9.75H22.75V3.25C22.75 2.38805 22.4076 1.5614 21.7981 0.951903C21.1886 0.34241 20.362 0 19.5 0C18.638 0 17.8114 0.34241 17.2019 0.951903C16.5924 1.5614 16.25 2.38805 16.25 3.25V10.335C14.887 10.8203 13.649 11.6028 12.6259 12.6259C11.6028 13.649 10.8203 14.887 10.335 16.25H3.25C2.38805 16.25 1.5614 16.5924 0.951903 17.2019C0.34241 17.8114 0 18.638 0 19.5C0 20.362 0.34241 21.1886 0.951903 21.7981C1.5614 22.4076 2.38805 22.75 3.25 22.75H9.75V29.25H3.25C2.38805 29.25 1.5614 29.5924 0.951903 30.2019C0.34241 30.8114 0 31.638 0 32.5C0 33.362 0.34241 34.1886 0.951903 34.7981C1.5614 35.4076 2.38805 35.75 3.25 35.75H9.75V42.25H3.25C2.38805 42.25 1.5614 42.5924 0.951903 43.2019C0.34241 43.8114 0 44.638 0 45.5C0 46.362 0.34241 47.1886 0.951903 47.7981C1.5614 48.4076 2.38805 48.75 3.25 48.75H10.335C10.8203 50.113 11.6028 51.351 12.6259 52.3741C13.649 53.3972 14.887 54.1797 16.25 54.665V61.75C16.25 62.612 16.5924 63.4386 17.2019 64.0481C17.8114 64.6576 18.638 65 19.5 65C20.362 65 21.1886 64.6576 21.7981 64.0481C22.4076 63.4386 22.75 62.612 22.75 61.75V55.25H29.25V61.75C29.25 62.612 29.5924 63.4386 30.2019 64.0481C30.8114 64.6576 31.638 65 32.5 65C33.362 65 34.1886 64.6576 34.7981 64.0481C35.4076 63.4386 35.75 62.612 35.75 61.75V55.25H42.25V61.75C42.25 62.612 42.5924 63.4386 43.2019 64.0481C43.8114 64.6576 44.638 65 45.5 65C46.362 65 47.1886 64.6576 47.7981 64.0481C48.4076 63.4386 48.75 62.612 48.75 61.75V54.665C50.113 54.1797 51.351 53.3972 52.3741 52.3741C53.3972 51.351 54.1797 50.113 54.665 48.75H61.75C62.612 48.75 63.4386 48.4076 64.0481 47.7981C64.6576 47.1886 65 46.362 65 45.5C65 44.638 64.6576 43.8114 64.0481 43.2019C63.4386 42.5924 62.612 42.25 61.75 42.25H55.25V35.75H61.75ZM48.75 45.5C48.75 46.362 48.4076 47.1886 47.7981 47.7981C47.1886 48.4076 46.362 48.75 45.5 48.75H19.5C18.638 48.75 17.8114 48.4076 17.2019 47.7981C16.5924 47.1886 16.25 46.362 16.25 45.5V19.5C16.25 18.638 16.5924 17.8114 17.2019 17.2019C17.8114 16.5924 18.638 16.25 19.5 16.25H45.5C46.362 16.25 47.1886 16.5924 47.7981 17.2019C48.4076 17.8114 48.75 18.638 48.75 19.5V45.5Z" fill="#C41E2A"/>
</svg>
