<svg width="73" height="66" viewBox="0 0 73 66" fill="none" xmlns="http://www.w3.org/2000/svg">
<path d="M32.9167 65.8333C28.3632 65.8333 24.084 64.9687 20.0792 63.2395C16.0743 61.5103 12.5906 59.1655 9.62813 56.2052C6.66563 53.2449 4.32087 49.7612 2.59384 45.7542C0.86681 41.7471 0.00219861 37.4679 4.16667e-06 32.9167C-0.00219028 28.3654 0.862421 24.0862 2.59384 20.0792C4.32525 16.0721 6.67002 12.5884 9.62813 9.62813C12.5862 6.66782 16.0699 4.32306 20.0792 2.59383C24.0884 0.864611 28.3676 0 32.9167 0C36.4826 0 39.8566 0.52118 43.0385 1.56354C46.2205 2.6059 49.1556 4.05972 51.8438 5.925L47.0708 10.7802C44.9861 9.46354 42.7642 8.43544 40.4052 7.69592C38.0462 6.95639 35.55 6.58553 32.9167 6.58333C25.6201 6.58333 19.4066 9.14864 14.276 14.2793C9.14535 19.4099 6.58114 25.6223 6.58334 32.9167C6.58553 40.211 9.15084 46.4246 14.2793 51.5574C19.4077 56.6902 25.6201 59.2544 32.9167 59.25C34.6722 59.25 36.3729 59.0854 38.0188 58.7563C39.6646 58.4271 41.2556 57.9608 42.7917 57.3573L47.7292 62.3771C45.4799 63.4743 43.1208 64.3247 40.6521 64.9281C38.1833 65.5316 35.6049 65.8333 32.9167 65.8333ZM55.9583 59.25V49.375H46.0833V42.7917H55.9583V32.9167H62.5417V42.7917H72.4167V49.375H62.5417V59.25H55.9583ZM28.3083 48.0583L14.3188 34.0688L18.9271 29.4604L28.3083 38.8417L61.225 5.84271L65.8333 10.451L28.3083 48.0583Z" fill="#C41E2A"/>
</svg>
