<svg width="66" height="66" viewBox="0 0 66 66" fill="none" xmlns="http://www.w3.org/2000/svg">
<path d="M53.625 35.0625C55.043 35.0625 56.375 35.3311 57.6211 35.8682C58.8672 36.4053 59.9629 37.1357 60.9082 38.0596C61.8535 38.9834 62.5947 40.0791 63.1318 41.3467C63.6689 42.6143 63.9375 43.957 63.9375 45.375C63.9375 46.4922 63.7656 47.5771 63.4219 48.6299C63.0781 49.6826 62.5625 50.6602 61.875 51.5625V65.2266L53.625 61.1016L45.375 65.2266V51.5625C44.709 50.6602 44.2041 49.6826 43.8604 48.6299C43.5166 47.5771 43.334 46.4922 43.3125 45.375C43.3125 43.957 43.5811 42.625 44.1182 41.3789C44.6553 40.1328 45.3857 39.0371 46.3096 38.0918C47.2334 37.1465 48.3291 36.4053 49.5967 35.8682C50.8643 35.3311 52.207 35.0625 53.625 35.0625ZM53.625 39.1875C52.7656 39.1875 51.96 39.3486 51.208 39.6709C50.4561 39.9932 49.8008 40.4336 49.2422 40.9922C48.6836 41.5508 48.2432 42.2061 47.9209 42.958C47.5986 43.71 47.4375 44.5156 47.4375 45.375C47.4375 46.2344 47.5986 47.04 47.9209 47.792C48.2432 48.5439 48.6836 49.1992 49.2422 49.7578C49.8008 50.3164 50.4561 50.7568 51.208 51.0791C51.96 51.4014 52.7656 51.5625 53.625 51.5625C54.4844 51.5625 55.29 51.4014 56.042 51.0791C56.7939 50.7568 57.4492 50.3164 58.0078 49.7578C58.5664 49.1992 59.0068 48.5439 59.3291 47.792C59.6514 47.04 59.8125 46.2344 59.8125 45.375C59.8125 44.5156 59.6514 43.71 59.3291 42.958C59.0068 42.2061 58.5664 41.5508 58.0078 40.9922C57.4492 40.4336 56.7939 39.9932 56.042 39.6709C55.29 39.3486 54.4844 39.1875 53.625 39.1875ZM57.75 58.5234V54.8174C56.4609 55.3975 55.0859 55.6875 53.625 55.6875C52.1641 55.6875 50.7891 55.3975 49.5 54.8174V58.5234L53.625 56.4609L57.75 58.5234ZM53.625 16.5C52.4863 16.5 51.4229 16.7148 50.4346 17.1445C49.4463 17.5742 48.5654 18.165 47.792 18.917C47.0186 19.6689 46.4277 20.5391 46.0195 21.5273C45.6113 22.5156 45.3965 23.5898 45.375 24.75C45.375 26.7266 44.9346 28.585 44.0537 30.3252C43.1729 32.0654 41.9268 33.5371 40.3154 34.7402C40.7236 34.9336 41.1104 35.1484 41.4756 35.3848C41.8408 35.6211 42.2168 35.8682 42.6035 36.126L40.1865 39.4775C39.1338 38.7256 37.9951 38.1455 36.7705 37.7373C35.5459 37.3291 34.2891 37.125 33 37.125C31.2812 37.125 29.6807 37.4473 28.1982 38.0918C26.7158 38.7363 25.4053 39.6172 24.2666 40.7344C23.1279 41.8516 22.2363 43.1729 21.5918 44.6982C20.9473 46.2236 20.625 47.8242 20.625 49.5H16.5C16.5 47.9316 16.7148 46.417 17.1445 44.9561C17.5742 43.4951 18.1865 42.1201 18.9814 40.8311C19.7764 39.542 20.7324 38.3818 21.8496 37.3506C22.9668 36.3193 24.2344 35.4385 25.6523 34.708C24.0625 33.5264 22.8271 32.0654 21.9463 30.3252C21.0654 28.585 20.625 26.7266 20.625 24.75C20.625 23.6113 20.4102 22.5479 19.9805 21.5596C19.5508 20.5713 18.96 19.6904 18.208 18.917C17.4561 18.1436 16.5859 17.5527 15.5977 17.1445C14.6094 16.7363 13.5352 16.5215 12.375 16.5C11.2363 16.5 10.1729 16.7148 9.18457 17.1445C8.19629 17.5742 7.31543 18.165 6.54199 18.917C5.76855 19.6689 5.17773 20.5391 4.76953 21.5273C4.36133 22.5156 4.14648 23.5898 4.125 24.75H0C0 23.6328 0.150391 22.5479 0.451172 21.4951C0.751953 20.4424 1.1709 19.4434 1.70801 18.498C2.24512 17.5527 2.91113 16.6934 3.70605 15.9199C4.50098 15.1465 5.39258 14.4805 6.38086 13.9219C5.67188 13.1699 5.12402 12.2998 4.7373 11.3115C4.35059 10.3232 4.14648 9.30273 4.125 8.25C4.125 7.11133 4.33984 6.04785 4.76953 5.05957C5.19922 4.07129 5.79004 3.19043 6.54199 2.41699C7.29395 1.64355 8.16406 1.05273 9.15234 0.644531C10.1406 0.236328 11.2148 0.0214844 12.375 0C13.5137 0 14.5771 0.214844 15.5654 0.644531C16.5537 1.07422 17.4346 1.66504 18.208 2.41699C18.9814 3.16895 19.5723 4.03906 19.9805 5.02734C20.3887 6.01562 20.6035 7.08984 20.625 8.25C20.625 9.30273 20.4316 10.3232 20.0449 11.3115C19.6582 12.2998 19.0996 13.1699 18.3691 13.9219C20.1309 14.8887 21.5703 16.2207 22.6875 17.918C23.2676 17.0586 23.9336 16.2852 24.6855 15.5977C25.4375 14.9102 26.2539 14.3301 27.1348 13.8574C28.0156 13.3848 28.9502 13.0195 29.9385 12.7617C30.9268 12.5039 31.9473 12.375 33 12.375C34.0312 12.375 35.041 12.5039 36.0293 12.7617C37.0176 13.0195 37.9521 13.3848 38.833 13.8574C39.7139 14.3301 40.541 14.9102 41.3145 15.5977C42.0879 16.2852 42.7539 17.0586 43.3125 17.918C44.4297 16.2207 45.8691 14.8887 47.6309 13.9219C46.9219 13.1699 46.374 12.2998 45.9873 11.3115C45.6006 10.3232 45.3965 9.30273 45.375 8.25C45.375 7.11133 45.5898 6.04785 46.0195 5.05957C46.4492 4.07129 47.04 3.19043 47.792 2.41699C48.5439 1.64355 49.4141 1.05273 50.4023 0.644531C51.3906 0.236328 52.4648 0.0214844 53.625 0C54.7637 0 55.8271 0.214844 56.8154 0.644531C57.8037 1.07422 58.6846 1.66504 59.458 2.41699C60.2314 3.16895 60.8223 4.03906 61.2305 5.02734C61.6387 6.01562 61.8535 7.08984 61.875 8.25C61.875 9.30273 61.6816 10.3232 61.2949 11.3115C60.9082 12.2998 60.3496 13.1699 59.6191 13.9219C60.6074 14.4805 61.4883 15.1465 62.2617 15.9199C63.0352 16.6934 63.7012 17.542 64.2598 18.4658C64.8184 19.3896 65.248 20.3887 65.5488 21.4629C65.8496 22.5371 66 23.6328 66 24.75H61.875C61.875 23.6113 61.6602 22.5479 61.2305 21.5596C60.8008 20.5713 60.21 19.6904 59.458 18.917C58.7061 18.1436 57.8359 17.5527 56.8477 17.1445C55.8594 16.7363 54.7852 16.5215 53.625 16.5ZM49.5 8.25C49.5 8.83008 49.6074 9.36719 49.8223 9.86133C50.0371 10.3555 50.3271 10.7852 50.6924 11.1504C51.0576 11.5156 51.498 11.8164 52.0137 12.0527C52.5293 12.2891 53.0664 12.3965 53.625 12.375C54.2051 12.375 54.7422 12.2676 55.2363 12.0527C55.7305 11.8379 56.1602 11.5479 56.5254 11.1826C56.8906 10.8174 57.1914 10.377 57.4277 9.86133C57.6641 9.3457 57.7715 8.80859 57.75 8.25C57.75 7.66992 57.6426 7.13281 57.4277 6.63867C57.2129 6.14453 56.9229 5.71484 56.5576 5.34961C56.1924 4.98438 55.752 4.68359 55.2363 4.44727C54.7207 4.21094 54.1836 4.10352 53.625 4.125C53.0449 4.125 52.5078 4.23242 52.0137 4.44727C51.5195 4.66211 51.0898 4.95215 50.7246 5.31738C50.3594 5.68262 50.0586 6.12305 49.8223 6.63867C49.5859 7.1543 49.4785 7.69141 49.5 8.25ZM8.25 8.25C8.25 8.83008 8.35742 9.36719 8.57227 9.86133C8.78711 10.3555 9.07715 10.7852 9.44238 11.1504C9.80762 11.5156 10.248 11.8164 10.7637 12.0527C11.2793 12.2891 11.8164 12.3965 12.375 12.375C12.9551 12.375 13.4922 12.2676 13.9863 12.0527C14.4805 11.8379 14.9102 11.5479 15.2754 11.1826C15.6406 10.8174 15.9414 10.377 16.1777 9.86133C16.4141 9.3457 16.5215 8.80859 16.5 8.25C16.5 7.66992 16.3926 7.13281 16.1777 6.63867C15.9629 6.14453 15.6729 5.71484 15.3076 5.34961C14.9424 4.98438 14.502 4.68359 13.9863 4.44727C13.4707 4.21094 12.9336 4.10352 12.375 4.125C11.7949 4.125 11.2578 4.23242 10.7637 4.44727C10.2695 4.66211 9.83984 4.95215 9.47461 5.31738C9.10938 5.68262 8.80859 6.12305 8.57227 6.63867C8.33594 7.1543 8.22852 7.69141 8.25 8.25ZM24.75 24.75C24.75 25.8887 24.9648 26.9521 25.3945 27.9404C25.8242 28.9287 26.415 29.8096 27.167 30.583C27.9189 31.3564 28.7891 31.9473 29.7773 32.3555C30.7656 32.7637 31.8398 32.9785 33 33C34.1387 33 35.2021 32.7852 36.1904 32.3555C37.1787 31.9258 38.0596 31.335 38.833 30.583C39.6064 29.8311 40.1973 28.9609 40.6055 27.9727C41.0137 26.9844 41.2285 25.9102 41.25 24.75C41.25 23.6113 41.0352 22.5479 40.6055 21.5596C40.1758 20.5713 39.585 19.6904 38.833 18.917C38.0811 18.1436 37.2109 17.5527 36.2227 17.1445C35.2344 16.7363 34.1602 16.5215 33 16.5C31.8613 16.5 30.7979 16.7148 29.8096 17.1445C28.8213 17.5742 27.9404 18.165 27.167 18.917C26.3936 19.6689 25.8027 20.5391 25.3945 21.5273C24.9863 22.5156 24.7715 23.5898 24.75 24.75Z" fill="#C41E2A"/>
</svg>
